<?xml version="1.0" standalone="no"?>
<!DOCTYPE svg PUBLIC "-//W3C//DTD SVG 20010904//EN"
 "http://www.w3.org/TR/2001/REC-SVG-20010904/DTD/svg10.dtd">
<svg version="1.0" xmlns="http://www.w3.org/2000/svg"
 width="161.000000pt" height="161.000000pt" viewBox="0 0 161.000000 161.000000"
 preserveAspectRatio="xMidYMid meet">
<metadata>
Created by potrace 1.11, written by Peter Selinger 2001-2013
</metadata>
<g transform="translate(0.000000,161.000000) scale(0.100000,-0.100000)"
fill="#000000" stroke="none">
<path d="M751 1600 c-5 -3 -12 -25 -16 -50 -3 -25 -9 -58 -11 -75 -3 -16 -7
-43 -10 -60 -3 -16 -14 -86 -24 -154 -11 -68 -21 -125 -23 -128 -7 -6 -337 -4
-348 3 -9 5 -6 78 6 144 5 25 18 149 16 157 0 4 -37 7 -82 7 -91 1 -93 0 -103
-77 -4 -26 -11 -69 -16 -95 -4 -26 -11 -66 -15 -89 -3 -23 -12 -72 -20 -108
-15 -74 -8 -109 23 -117 11 -3 173 -5 360 -5 l341 0 5 26 c5 26 41 251 52 326
4 22 8 49 10 60 8 38 34 215 34 228 0 9 -23 12 -86 12 -47 0 -89 -2 -93 -5z"/>
<path d="M111 904 c-16 -7 -32 -21 -35 -31 -4 -15 -53 -301 -70 -413 l-5 -36
85 1 c46 1 88 5 92 11 5 5 16 54 25 109 28 167 33 185 50 186 7 1 90 2 184 4
l173 3 -4 -27 c-21 -125 -48 -301 -51 -321 -1 -14 -15 -97 -29 -185 -15 -88
-28 -169 -29 -180 -2 -18 4 -20 92 -20 107 0 103 -3 116 100 10 84 12 93 23
160 12 64 17 98 33 210 5 39 14 95 19 125 5 30 12 73 15 95 3 22 7 51 10 65 2
14 6 43 9 65 4 22 8 51 11 65 l5 25 -345 1 c-250 0 -353 -3 -374 -12z"/>
<path d="M869 910 c-5 -3 -11 -24 -14 -45 -3 -22 -8 -51 -10 -65 -3 -14 -7
-43 -10 -65 -4 -22 -10 -65 -15 -95 -5 -30 -12 -73 -15 -95 -3 -22 -13 -93
-23 -158 -10 -64 -16 -120 -13 -122 8 -8 181 -6 181 3 0 4 7 48 16 97 21 127
23 137 28 176 3 19 7 48 10 64 3 17 8 50 11 75 4 24 8 48 11 51 5 8 321 10
347 3 21 -7 22 -39 3 -154 -8 -47 -17 -102 -19 -122 l-6 -38 89 0 88 0 6 27
c5 25 19 113 32 198 3 17 9 55 14 85 20 113 21 145 6 165 -13 19 -29 20 -361
20 -191 0 -351 -2 -356 -5z"/>
</g>
</svg>
