<svg width="20" height="19" viewBox="0 0 20 19" fill="none" xmlns="http://www.w3.org/2000/svg"><path fill-rule="evenodd" clip-rule="evenodd" d="M20 4.75C20 2.127 17.761 0 15 0H5C2.239 0 0 2.127 0 4.75v9.5C0 16.873 2.239 19 5 19h10c2.761 0 5-2.127 5-4.75v-9.5z" fill="url(#paint0_radial)"/><path d="M12.958 3.005c2.09.018 4.016 1.685 4.037 3.748a718.67 718.67 0 010 5.494c-.02 1.934-1.815 3.729-4.037 3.748a897.35 897.35 0 01-5.916 0c-2.092-.018-4.016-1.685-4.037-3.748a718.466 718.466 0 010-5.494c.02-1.943 1.81-3.729 4.037-3.748 1.972-.007 3.944-.007 5.916 0zm-5.889.877C5.446 3.887 3.966 5.193 3.95 6.76a834.801 834.801 0 000 5.482c.015 1.49 1.388 2.862 3.098 2.877 1.968.005 3.936.005 5.904 0 1.609-.014 3.082-1.29 3.098-2.877.006-1.827.006-3.655 0-5.482-.015-1.5-1.415-2.862-3.098-2.877-1.961-.005-3.922 0-5.883 0z" fill="#fff"/><path d="M10.02 6c1.387.015 2.679 1.263 2.932 2.862.181 1.14-.16 2.376-.88 3.178-.8.89-2.04 1.208-3.102.754-1.188-.507-2.023-1.968-1.967-3.448C7.07 7.578 8.408 6.006 10 6h.02zm-.034.947c-.989.011-1.922.887-2.128 2.025-.208 1.151.36 2.428 1.29 2.887 1.018.502 2.33-.06 2.822-1.233.508-1.21.029-2.856-1.044-3.44a1.956 1.956 0 00-.94-.239z" fill="#fff"/><defs><radialGradient id="paint0_radial" cx="0" cy="0" r="1" gradientUnits="userSpaceOnUse" gradientTransform="matrix(27.933 0 0 26.5363 0 18.525)"><stop stop-color="#FF8100"/><stop offset=".19" stop-color="#FF7209"/><stop offset=".32" stop-color="#F55E16"/><stop offset=".48" stop-color="#D92938"/><stop offset="1" stop-color="#9100FF"/></radialGradient></defs></svg>