<svg width="24" height="15" viewBox="0 0 24 15" fill="none" xmlns="http://www.w3.org/2000/svg"><path d="M1.364.742h2.651c.336 0 .598.224.71.523.336.97 1.082 3.099 1.941 4.555 1.158 1.904 1.904 2.614 2.39 2.54.485-.113.336-1.382.336-2.39 0-1.009.112-2.726-.374-3.51l-.746-1.083A.373.373 0 018.57.78h4.257a.75.75 0 01.747.746V6.94s.186.971 1.232-.037c1.045-1.008 2.165-2.875 3.099-4.78l.373-.895a.738.738 0 01.673-.448h2.762c.523 0 .897.522.71 1.008l-.299.784s-1.008 2.016-2.053 3.435c-1.046 1.456-1.27 1.792-1.12 2.166.149.373 2.837 2.875 3.51 4.07.186.335.335.634.485.896.261.485-.112 1.12-.672 1.12h-3.137a.723.723 0 01-.635-.374l-.298-.485s-1.905-2.24-3.062-2.95c-1.195-.672-1.157.299-1.157.299v1.979c0 .821-.673 1.493-1.494 1.493h-.747s-4.107 0-7.393-4.891C1.775 5.521.916 3.057.617 1.638.543 1.19.88.742 1.364.742z" fill="#5181B8"/></svg>