<svg width="23" height="16" viewBox="0 0 23 16" fill="none" xmlns="http://www.w3.org/2000/svg"><path fill-rule="evenodd" clip-rule="evenodd" d="M22.77 3.451s-.225-1.567-.914-2.258C20.98.287 20 .283 19.55.23 16.333 0 11.505 0 11.505 0h-.01S6.667 0 3.449.23c-.45.053-1.43.057-2.305.963-.69.69-.914 2.258-.914 2.258S0 5.293 0 7.133v1.726c0 1.841.23 3.682.23 3.682s.224 1.567.914 2.258c.875.906 2.024.878 2.536.972 1.84.175 7.82.229 7.82.229s4.833-.007 8.051-.237c.45-.054 1.43-.058 2.305-.964.689-.69.914-2.258.914-2.258s.23-1.84.23-3.682V7.133c0-1.84-.23-3.682-.23-3.682zm-13.645 7.5V4.559l6.214 3.207-6.214 3.185z" fill="#CE1312"/><path d="M15.341 7.765l-6.216 3.186V4.56l6.216 3.205z" fill="#fff"/></svg>